<?xml version="1.0" encoding="UTF-8"?>
<svg width="139px" height="46px" viewBox="0 0 139 46" version="1.1" xmlns="http://www.w3.org/2000/svg" xmlns:xlink="http://www.w3.org/1999/xlink">
    <!-- Generator: Sketch 49 (51002) - http://www.bohemiancoding.com/sketch -->
    <title>Tools</title>
    <desc>Created with Sketch.</desc>
    <defs></defs>
    <g id="Tools" stroke="none" stroke-width="1" fill="none" fill-rule="evenodd">
        <text id="toolbox" font-family="ArialRoundedMTBold, Arial Rounded MT Bold" font-size="14" font-weight="normal" fill="#4A4A4A">
            <tspan x="67.9189453" y="27">toolbox</tspan>
        </text>
        <g id="Toolbox" transform="translate(11.000000, 13.000000)" fill="#4A4A4A" fill-rule="nonzero">
            <path d="M23.4375,3.125 L17.1875,3.125 C17.1875,3.98794492 16.4879449,4.6875 15.625,4.6875 L23.4375,4.6875 L23.4375,7.8125 L15.625,7.8125 C16.4879449,7.8125 17.1875,8.51205508 17.1875,9.375 L23.4375,9.375 L23.4375,18.75 L1.5625,18.75 L1.5625,9.375 L7.8125,9.375 C7.8125,8.51205508 8.51205508,7.8125 9.375,7.8125 L1.5625,7.8125 L1.5625,4.6875 L9.375,4.6875 C8.51205508,4.6875 7.8125,3.98794492 7.8125,3.125 L1.5625,3.125 C0.699555078,3.125 1.05680274e-16,3.82455508 0,4.6875 L0,18.75 C1.05680274e-16,19.6129449 0.699555078,20.3125 1.5625,20.3125 L23.4375,20.3125 C24.3004449,20.3125 25,19.6129449 25,18.75 L25,4.6875 C25,3.82455508 24.3004449,3.125 23.4375,3.125 Z M9.375,4.6875 L15.625,4.6875 C16.4879449,4.6875 17.1875,3.98794492 17.1875,3.125 L17.1875,1.5625 C17.1875,0.699555078 16.4879449,0 15.625,0 L9.375,0 C8.51205508,0 7.8125,0.699555078 7.8125,1.5625 L7.8125,3.125 C7.8125,3.98794492 8.51205508,4.6875 9.375,4.6875 Z M9.375,1.5625 L15.625,1.5625 L15.625,3.125 L9.375,3.125 L9.375,1.5625 Z M7.8125,9.375 L7.8125,10.9375 C7.8125,11.8004449 8.51205508,12.5 9.375,12.5 L15.625,12.5 C16.4879449,12.5 17.1875,11.8004449 17.1875,10.9375 L17.1875,9.375 C17.1875,8.51205508 16.4879449,7.8125 15.625,7.8125 L9.375,7.8125 C8.51205508,7.8125 7.8125,8.51205508 7.8125,9.375 Z M15.625,10.9375 L9.375,10.9375 L9.375,9.375 L15.625,9.375 L15.625,10.9375 Z" id="Shape"></path>
        </g>
    </g>
</svg>