<?xml version="1.0" encoding="UTF-8"?>
<svg width="30px" height="30px" viewBox="0 0 30 30" version="1.1" xmlns="http://www.w3.org/2000/svg" xmlns:xlink="http://www.w3.org/1999/xlink">
    <!-- Generator: Sketch 49 (51002) - http://www.bohemiancoding.com/sketch -->
    <title>Export CSV</title>
    <desc>Created with Sketch.</desc>
    <defs>
        <path d="M0.126,0.125 L0.126,29.75 L29.752,29.75 L29.752,0.125 L0.126,0.125 Z M20.864,5.68 L20.864,11.8525 L15.433,11.8525 L15.433,5.68 L20.864,5.68 Z M28.271,19.875 L22.346,19.875 L22.346,13.7025 L28.271,13.7025 L28.271,19.875 Z M20.864,19.875 L15.433,19.875 L15.433,13.7025 L20.864,13.7025 L20.864,19.875 Z M1.608,13.7025 L13.952,13.7025 L13.952,19.875 L1.608,19.875 L1.608,13.7025 Z M13.952,5.68 L13.952,11.8525 L1.608,11.8525 L1.608,5.68 L13.952,5.68 Z M1.608,27.89875 L1.608,21.72625 L13.952,21.72625 L13.952,27.89875 L1.608,27.89875 Z M15.433,27.89875 L15.433,21.72625 L20.864,21.72625 L20.864,27.89875 L15.433,27.89875 Z M22.346,27.89875 L22.346,21.72625 L28.271,21.72625 L28.271,27.89875 L22.346,27.89875 Z M28.271,11.85125 L22.346,11.85125 L22.346,5.68 L28.271,5.68 L28.271,11.85125 Z" id="path-1"></path>
        <filter x="-6.8%" y="-6.8%" width="113.5%" height="113.5%" filterUnits="objectBoundingBox" id="filter-2">
            <feGaussianBlur stdDeviation="1.5" in="SourceAlpha" result="shadowBlurInner1"></feGaussianBlur>
            <feOffset dx="0" dy="1" in="shadowBlurInner1" result="shadowOffsetInner1"></feOffset>
            <feComposite in="shadowOffsetInner1" in2="SourceAlpha" operator="arithmetic" k2="-1" k3="1" result="shadowInnerInner1"></feComposite>
            <feColorMatrix values="0 0 0 0 0   0 0 0 0 0   0 0 0 0 0  0 0 0 0.5 0" type="matrix" in="shadowInnerInner1"></feColorMatrix>
        </filter>
    </defs>
    <g id="Export-CSV" stroke="none" stroke-width="1" fill="none" fill-rule="evenodd">
        <g id="Table" fill-rule="nonzero">
            <g id="Shape">
                <use fill="#4A4A4A" fill-rule="evenodd" xlink:href="#path-1"></use>
                <use fill="black" fill-opacity="1" filter="url(#filter-2)" xlink:href="#path-1"></use>
            </g>
        </g>
    </g>
</svg>