<?xml version="1.0" encoding="UTF-8"?>
<svg width="139px" height="46px" viewBox="0 0 139 46" version="1.1" xmlns="http://www.w3.org/2000/svg" xmlns:xlink="http://www.w3.org/1999/xlink">
    <!-- Generator: Sketch 49 (51002) - http://www.bohemiancoding.com/sketch -->
    <title>Details</title>
    <desc>Created with Sketch.</desc>
    <defs></defs>
    <g id="Details" stroke="none" stroke-width="1" fill="none" fill-rule="evenodd">
        <text id="details" font-family="ArialRoundedMTBold, Arial Rounded MT Bold" font-size="14" font-weight="normal" fill="#4A4A4A">
            <tspan x="70.2397461" y="27">details</tspan>
        </text>
        <g id="Table_Information" transform="translate(11.000000, 11.000000)" fill="#4A4A4A" fill-rule="nonzero">
            <path d="M20.8333333,25 L4.16666667,25 C1.875,25 0,23.125 0,20.8333333 L0,5.20833333 C0,4.58333333 0.416666667,4.16666667 1.04166667,4.16666667 L23.9583333,4.16666667 C24.5833333,4.16666667 25,4.58333333 25,5.20833333 L25,20.8333333 C25,23.125 23.125,25 20.8333333,25 Z M2.08333333,6.25 L2.08333333,20.8333333 C2.08333333,21.9791667 3.02083333,22.9166667 4.16666667,22.9166667 L20.8333333,22.9166667 C21.9791667,22.9166667 22.9166667,21.9791667 22.9166667,20.8333333 L22.9166667,6.25 L2.08333333,6.25 Z" id="Shape"></path>
            <path d="M23.9583333,5.20833333 L1.04166667,5.20833333 L1.04166667,4.16666667 C1.04166667,2.39583333 2.39583333,1.04166667 4.16666667,1.04166667 L20.8333333,1.04166667 C22.6041667,1.04166667 23.9583333,2.39583333 23.9583333,4.16666667 L23.9583333,5.20833333 Z" id="Shape"></path>
            <path d="M23.9583333,6.25 L1.04166667,6.25 C0.416666667,6.25 0,5.83333333 0,5.20833333 L0,4.16666667 C0,1.875 1.875,0 4.16666667,0 L20.8333333,0 C23.125,0 25,1.875 25,4.16666667 L25,5.20833333 C25,5.83333333 24.5833333,6.25 23.9583333,6.25 Z M2.08333333,4.16666667 L22.9166667,4.16666667 C22.9166667,3.02083333 21.9791667,2.08333333 20.8333333,2.08333333 L4.16666667,2.08333333 C3.02083333,2.08333333 2.08333333,3.02083333 2.08333333,4.16666667 Z" id="Shape"></path>
            <path d="M7.29166667,25 C6.66666667,25 6.25,24.5833333 6.25,23.9583333 L6.25,5.20833333 C6.25,4.58333333 6.66666667,4.16666667 7.29166667,4.16666667 C7.91666667,4.16666667 8.33333333,4.58333333 8.33333333,5.20833333 L8.33333333,23.9583333 C8.33333333,24.5833333 7.91666667,25 7.29166667,25 Z" id="Shape"></path>
            <path d="M23.9583333,12.5 L1.04166667,12.5 C0.416666667,12.5 0,12.0833333 0,11.4583333 C0,10.8333333 0.416666667,10.4166667 1.04166667,10.4166667 L23.9583333,10.4166667 C24.5833333,10.4166667 25,10.8333333 25,11.4583333 C25,12.0833333 24.5833333,12.5 23.9583333,12.5 Z" id="Shape"></path>
            <path d="M23.9583333,18.75 L1.04166667,18.75 C0.416666667,18.75 0,18.3333333 0,17.7083333 C0,17.0833333 0.416666667,16.6666667 1.04166667,16.6666667 L23.9583333,16.6666667 C24.5833333,16.6666667 25,17.0833333 25,17.7083333 C25,18.3333333 24.5833333,18.75 23.9583333,18.75 Z" id="Shape"></path>
        </g>
    </g>
</svg>