<?xml version="1.0" encoding="UTF-8"?>
<svg width="139px" height="46px" viewBox="0 0 139 46" version="1.1" xmlns="http://www.w3.org/2000/svg" xmlns:xlink="http://www.w3.org/1999/xlink">
    <!-- Generator: Sketch 49 (51002) - http://www.bohemiancoding.com/sketch -->
    <title>Export</title>
    <desc>Created with Sketch.</desc>
    <defs></defs>
    <g id="Export" stroke="none" stroke-width="1" fill="none" fill-rule="evenodd">
        <text id="export" font-family="ArialRoundedMTBold, Arial Rounded MT Bold" font-size="14" font-weight="normal" fill="#4A4A4A">
            <tspan x="71.0463867" y="27">export</tspan>
        </text>
        <g transform="translate(11.000000, 11.000000)" fill="#4A4A4A" fill-rule="nonzero" id="Shape">
            <path d="M23.453125,15.625 L23.421875,15.625 C22.5675595,15.625 21.875,16.3175595 21.875,17.171875 L21.875,21.09375 C21.875,21.5252225 21.5252225,21.875 21.09375,21.875 L3.90625,21.875 C3.47477754,21.875 3.125,21.5252225 3.125,21.09375 L3.125,3.90625 C3.125,3.47477754 3.47477754,3.125 3.90625,3.125 L10.953125,3.125 C11.8074405,3.125 12.5,2.43244047 12.5,1.578125 L12.5,1.546875 C12.5,0.692559528 11.8074405,5.23117354e-17 10.953125,0 L1.546875,0 C0.692559528,-5.23117354e-17 1.04623471e-16,0.692559528 0,1.546875 L0,23.453125 C1.04623471e-16,24.3074405 0.692559528,25 1.546875,25 L23.453125,25 C24.3074405,25 25,24.3074405 25,23.453125 L24.984375,23.4375 L25,23.4375 L25,17.171875 C25,16.3175595 24.3074405,15.625 23.453125,15.625 Z"></path>
            <path d="M19.4875,4.4625 C15.0507813,4.77890625 11.6359375,6.23515625 9.32109375,8.80703125 C7.52079282,10.8332972 6.4561717,13.4073243 6.29921875,16.1132812 C6.2467821,16.5825109 6.39662107,17.0518708 6.71124363,17.40392 C7.0258662,17.7559693 7.47550601,17.9574005 7.94765625,17.9578125 L8.02578125,17.95 C8.75974428,17.8697379 9.33021837,17.2742315 9.37890625,16.5375 C9.49826564,14.4487938 10.3024854,12.4576016 11.6671875,10.871875 C13.3914063,8.971875 16.0367188,7.8796875 19.53125,7.5984375 L19.53125,7.8125 L19.4875,7.8125 L19.4539063,8.021875 L17.653125,9.83984375 C17.0478154,10.4534447 17.0478154,11.439524 17.653125,12.053125 C17.9423665,12.3465645 18.3371903,12.5117747 18.7492188,12.5117747 C19.1612472,12.5117747 19.556071,12.3465645 19.8453125,12.053125 L24.5453125,7.3078125 C25.1511361,6.69411818 25.1511361,5.70744432 24.5453125,5.09375 L19.8578125,0.45859375 C19.5686004,0.165396132 19.1739449,0.000340225153 18.7621094,0.000340225153 C18.3502739,0.000340225153 17.9556184,0.165396132 17.6664063,0.45859375 C17.0601602,1.07211464 17.0601602,2.05913536 17.6664063,2.67265625 L19.4875,4.46171875 L19.4875,4.4625 Z"></path>
        </g>
    </g>
</svg>