<?xml version="1.0" encoding="UTF-8"?>
<svg width="30px" height="30px" viewBox="0 0 30 30" version="1.1" xmlns="http://www.w3.org/2000/svg" xmlns:xlink="http://www.w3.org/1999/xlink">
    <!-- Generator: Sketch 49 (51002) - http://www.bohemiancoding.com/sketch -->
    <title>Export Google Earth</title>
    <desc>Created with Sketch.</desc>
    <defs>
        <path d="M30,15 C30,14.77625 29.985,14.5575 29.97125,14.3375 L29.95625,14.11375 C29.4925,6.19875 22.9225,0 15,0 C13.4625,0 11.94,0.235 10.475,0.69875 C8.37865472,1.36221424 6.45602542,2.48342777 4.84625,3.98125 C2.29649657,6.3322729 0.640054831,9.4940889 0.15875,12.92875 C0.0576259668,13.6146231 0.00457996066,14.3067273 0,15 C0,16.04 0.1125,17.095 0.33375,18.135 C1.16125,22.0225 3.5725,25.4875 6.94875,27.6425 C9.35239858,29.1808561 12.1462192,29.9989194 15,30 C17.5968869,29.9975946 20.1485892,29.3204717 22.405,28.035 C25.2586983,26.4033064 27.5051656,23.8888072 28.80625,20.87 C29.3358862,19.6134226 29.6912595,18.2903407 29.8625,16.9375 C29.95625,16.20625 30,15.59125 30,15 Z M15,1.25 C21.7825,1.25 27.4825,6.20625 28.5525,12.77125 L28.49125,12.7175 C28.2943731,12.5391972 28.1005942,12.3575034 27.91,12.1725 L27.81375,12.0775 C27.6217554,11.8895082 27.4313321,11.6999183 27.2425,11.50875 L27,11.2625 C26.8248638,11.083455 26.6502796,10.9038708 26.47625,10.72375 L26.2425,10.4825 L25.4875,9.695 C24.4428338,8.59591083 23.3856819,7.50875697 22.31625,6.43375 C21.7621638,5.88472095 21.1743548,5.37080549 20.55625,4.895 C20.1484185,4.57533866 19.7285293,4.27136721 19.2975,3.98375 C19.23625,3.9425 19.17625,3.8975 19.11375,3.8575 C18.63125,3.545 18.14875,3.265 17.6675,3.00375 C17.545,2.9375 17.42375,2.87625 17.3025,2.8125 C16.9137815,2.61055318 16.519016,2.42046545 16.11875,2.2425 C16.02875,2.2025 15.9375,2.1575 15.8475,2.12 C15.4042151,1.92988007 14.9548062,1.75436881 14.5,1.59375 C14.3975,1.5575 14.30125,1.5275 14.20125,1.49375 C14.02375,1.43375 13.84125,1.36875 13.67,1.31625 C14.1125,1.27125 14.55625,1.25 15,1.25 Z M5.47625,5.105 L5.695,5.13875 C5.93536464,5.18000532 6.17461262,5.22752147 6.4125,5.28125 C6.66952962,5.33742796 6.92503489,5.40036645 7.17875,5.47 L7.5475,5.57 C7.6925,5.61 7.83875,5.655 7.98625,5.7 C8.115,5.73875 8.2425,5.7775 8.37375,5.82 C8.52375,5.8675 8.675,5.91875 8.8275,5.97 C8.96,6.0125 9.0925,6.0575 9.22625,6.10375 C9.38,6.1575 9.535,6.215 9.69125,6.27125 C9.8275,6.32125 9.96375,6.37 10.1,6.4225 L10.5625,6.6025 C10.70125,6.65875 10.84125,6.7125 10.98125,6.77 C11.13375,6.8325 11.2875,6.8975 11.44,6.9625 C11.58,7.02125 11.72125,7.08 11.86,7.14125 C12.0125,7.20625 12.1625,7.275 12.3125,7.3425 C12.4525,7.405 12.5925,7.4675 12.73,7.53125 C12.88,7.60125 13.02625,7.6725 13.17375,7.7425 C13.30875,7.8075 13.445,7.87125 13.5775,7.93625 C13.725,8.00875 13.8675,8.0825 14.0125,8.1575 C14.14125,8.22375 14.2725,8.28875 14.39875,8.355 C14.53875,8.42875 14.6725,8.50375 14.80875,8.5775 L15.18125,8.78125 C15.31375,8.85625 15.43875,8.93125 15.56625,9.00625 C15.68125,9.07375 15.80125,9.1425 15.9125,9.21 C16.04125,9.28875 16.16,9.36625 16.2825,9.445 C16.38375,9.51 16.49,9.575 16.58625,9.63875 C16.71875,9.7275 16.84,9.815 16.96375,9.9025 C17.03875,9.95625 17.12,10.01 17.1925,10.0625 C17.3825,10.2025 17.56,10.34125 17.7225,10.4775 C17.87875,10.60875 18.05125,10.74875 18.23625,10.89625 L18.4475,11.06125 C18.6640133,11.2330101 18.8832069,11.4013641 19.105,11.56625 C19.3365551,11.7415534 19.5699007,11.9144792 19.805,12.085 L20.19875,12.37125 L20.53875,12.61375 C20.9349241,12.8961272 21.3345373,13.173648 21.7375,13.44625 C21.865,13.53375 21.9925,13.62 22.1225,13.70625 L22.55625,13.995 L22.935,14.24375 L23.385,14.53375 L23.7575,14.7725 C23.9125,14.87125 24.0675,14.96625 24.22125,15.06125 L24.56875,15.27625 C24.75375,15.38875 24.93375,15.49625 25.115,15.6025 L25.36,15.74875 C25.61875,15.9 25.8725,16.045 26.12,16.18125 L26.2975,16.27625 C26.4825,16.3775 26.66625,16.47625 26.84125,16.5675 L27.08125,16.6875 C27.22625,16.76 27.37125,16.8325 27.50875,16.89625 C27.5925,16.93625 27.67,16.96875 27.75125,17.005 C27.875,17.06 27.9975,17.11375 28.11125,17.16 C28.18875,17.19125 28.26125,17.2175 28.335,17.245 C28.40125,17.27 28.475,17.30125 28.53875,17.3225 C28.3871257,18.2371013 28.1425242,19.1338337 27.80875,19.99875 L25.625,19.99875 C25.2925,19.99875 24.8325,19.94875 24.11,19.74625 C22.52,19.29875 19.6525,18.11 14.0475,15.075 C13.193572,14.613103 12.3265475,14.1758392 11.4475,13.76375 C10.8111059,13.4621401 10.1662618,13.1786921 9.51375,12.91375 C9.47375,12.8975 9.43625,12.88625 9.39625,12.87 C8.85078532,12.6552346 8.29794441,12.4596974 7.73875,12.28375 C7.6,12.24125 7.46125,12.1975 7.325,12.1575 C6.80874971,12.0016763 6.28521205,11.8711048 5.75625,11.76625 C5.695,11.75375 5.63875,11.74875 5.57875,11.73875 C5.04977506,11.6437035 4.5146399,11.5868898 3.9775,11.56875 C3.89625,11.56625 3.80875,11.555 3.72875,11.555 C3.44125,11.555 3.17625,11.585 2.91125,11.615 C2.82875,11.62375 2.73875,11.62125 2.65875,11.63375 C2.2925,11.6875 1.94625,11.76875 1.6225,11.88125 C2.22789444,9.29858031 3.56606002,6.94561386 5.47625,5.105 Z M21.9375,26.86125 C21.7225,26.85625 21.5125,26.84625 21.30125,26.8375 C21.10375,26.82875 20.90375,26.82375 20.70875,26.8125 C20.46875,26.7975 20.235,26.775 20,26.755 C19.815,26.73875 19.62625,26.72625 19.44375,26.7075 C19.20875,26.68375 18.98125,26.65375 18.7525,26.625 C18.5775,26.60375 18.4,26.585 18.22875,26.56125 C17.9975,26.52875 17.775,26.4925 17.54875,26.4575 C17.38875,26.4325 17.225,26.41 17.06875,26.3825 C16.84625,26.345 16.6325,26.30375 16.41625,26.26375 C16.26625,26.23625 16.11125,26.21 15.965,26.18125 C15.75,26.14 15.5475,26.09625 15.34,26.05375 C15.20375,26.025 15.06,25.9975 14.9275,25.96875 C14.7225,25.925 14.53,25.88125 14.33375,25.8375 L13.95625,25.75375 L13.06875,25.55 C11.68875,25.23125 10.6925,25 10,25 C9.8625,25 9.71625,25.02375 9.56875,25.0575 C9.52375,25.0675 9.47875,25.0825 9.43375,25.095 C9.32281171,25.1266477 9.21351085,25.1637766 9.10625,25.20625 L8.96625,25.2625 C8.83384473,25.3207723 8.70374713,25.3841531 8.57625,25.4525 L8.52,25.48125 C8.37415912,25.561676 8.23115621,25.6471442 8.09125,25.7375 L7.96375,25.82125 C7.87,25.88375 7.78,25.94375 7.69375,26.005 L7.56625,26.09625 L7.335,26.26875 L7.25375,26.33125 C7.25073706,26.3345137 7.24738479,26.337447 7.24375,26.34 C4.52688688,24.4734599 2.5644242,21.6995092 1.70875,18.51625 L1.77875,18.51125 C2.06788895,18.4970044 2.35764154,18.5011795 2.64625,18.52375 C3.93875,18.615 5.6775,18.99125 7.4825,19.5625 L7.5575,19.58625 C7.9875,19.72375 8.42125,19.8725 8.8525,20.03 L8.98375,20.07875 C9.44770077,20.2500538 9.90741982,20.4326077 10.3625,20.62625 C10.785,20.80625 11.20125,20.9925 11.60125,21.1875 C15.59625,23.13375 20.59375,24.375 21.875,24.375 C22.15125,24.375 22.42625,24.3675 22.70125,24.35625 L22.96625,24.3425 C23.155,24.3325 23.34125,24.3225 23.525,24.30875 L23.8075,24.28625 C23.985,24.27125 24.15875,24.255 24.33,24.2375 L24.58375,24.21125 C24.77625,24.19 24.96125,24.1675 25.1425,24.145 L25.2625,24.13125 C24.30375,25.20625 23.175,26.135 21.9375,26.86125 Z" id="path-1"></path>
        <filter x="-6.7%" y="-6.7%" width="113.3%" height="113.3%" filterUnits="objectBoundingBox" id="filter-2">
            <feGaussianBlur stdDeviation="1.5" in="SourceAlpha" result="shadowBlurInner1"></feGaussianBlur>
            <feOffset dx="0" dy="1" in="shadowBlurInner1" result="shadowOffsetInner1"></feOffset>
            <feComposite in="shadowOffsetInner1" in2="SourceAlpha" operator="arithmetic" k2="-1" k3="1" result="shadowInnerInner1"></feComposite>
            <feColorMatrix values="0 0 0 0 0   0 0 0 0 0   0 0 0 0 0  0 0 0 0.5 0" type="matrix" in="shadowInnerInner1"></feColorMatrix>
        </filter>
    </defs>
    <g id="Export-Google-Earth" stroke="none" stroke-width="1" fill="none" fill-rule="evenodd">
        <g id="Google-Earth" fill-rule="nonzero">
            <g id="Layer_1">
                <g id="Shape">
                    <use fill="#4A4A4A" fill-rule="evenodd" xlink:href="#path-1"></use>
                    <use fill="black" fill-opacity="1" filter="url(#filter-2)" xlink:href="#path-1"></use>
                </g>
            </g>
        </g>
    </g>
</svg>