<?xml version="1.0" encoding="UTF-8"?>
<svg width="30px" height="30px" viewBox="0 0 30 30" version="1.1" xmlns="http://www.w3.org/2000/svg" xmlns:xlink="http://www.w3.org/1999/xlink">
    <!-- Generator: Sketch 49 (51002) - http://www.bohemiancoding.com/sketch -->
    <title>Export SHP</title>
    <desc>Created with Sketch.</desc>
    <defs>
        <path d="M5.625,18.75 L5.625,20.625 L7.5,20.625 L7.5,18.75 L5.625,18.75 Z M5.625,24.375 L7.5,24.375 L7.5,22.5 L5.625,22.5 L5.625,24.375 Z M11.25,24.375 L11.25,22.5 L9.375,22.5 L9.375,24.375 L11.25,24.375 Z M7.5,22.5 L9.375,22.5 L9.375,20.625 L7.5,20.625 L7.5,22.5 Z M11.25,5.625 L9.375,5.625 L9.375,7.5 L11.25,7.5 L11.25,5.625 Z M7.5,13.125 L9.375,13.125 L9.375,11.25 L7.5,11.25 L7.5,13.125 Z M22.5,11.25 L20.625,11.25 L20.625,13.125 L22.5,13.125 L22.5,11.25 Z M7.5,7.5 L5.625,7.5 L5.625,9.375 L7.5,9.375 L7.5,7.5 Z M13.125,22.5 L15,22.5 L15,20.625 L13.125,20.625 L13.125,22.5 Z M22.5,16.875 L24.375,16.875 L24.375,15 L22.5,15 L22.5,16.875 Z M20.625,20.625 L22.5,20.625 L22.5,18.75 L20.625,18.75 L20.625,20.625 Z M16.875,11.25 L18.75,11.25 L18.75,9.375 L16.875,9.375 L16.875,11.25 Z M24.375,0 L5.625,0 C2.51839828,-1.90224492e-16 3.80448985e-16,2.51839828 0,5.625 L0,24.375 C0,27.48 2.518125,30 5.625,30 L24.375,30 C27.481875,30 30,27.48 30,24.375 L30,5.625 C30,2.51839828 27.4816017,1.90224492e-16 24.375,0 Z M26.25,24.375 C26.25,25.411875 25.411875,26.25 24.375,26.25 L5.625,26.25 C4.588125,26.25 3.75,25.411875 3.75,24.375 L3.75,5.625 C3.75,4.58946609 4.58946609,3.75 5.625,3.75 L24.375,3.75 C25.4105339,3.75 26.25,4.58946609 26.25,5.625 L26.25,24.375 Z M9.375,20.625 L11.25,20.625 L11.25,18.75 L9.375,18.75 L9.375,20.625 Z M16.875,13.125 L15,13.125 L15,15 L16.875,15 L16.875,13.125 Z M16.875,22.5 L18.75,22.5 L18.75,20.625 L16.875,20.625 L16.875,22.5 Z M13.125,13.125 L11.25,13.125 L11.25,15 L13.125,15 L13.125,13.125 Z" id="path-1"></path>
        <filter x="-6.7%" y="-6.7%" width="113.3%" height="113.3%" filterUnits="objectBoundingBox" id="filter-2">
            <feGaussianBlur stdDeviation="1.5" in="SourceAlpha" result="shadowBlurInner1"></feGaussianBlur>
            <feOffset dx="0" dy="1" in="shadowBlurInner1" result="shadowOffsetInner1"></feOffset>
            <feComposite in="shadowOffsetInner1" in2="SourceAlpha" operator="arithmetic" k2="-1" k3="1" result="shadowInnerInner1"></feComposite>
            <feColorMatrix values="0 0 0 0 0   0 0 0 0 0   0 0 0 0 0  0 0 0 0.5 0" type="matrix" in="shadowInnerInner1"></feColorMatrix>
        </filter>
    </defs>
    <g id="Export-SHP" stroke="none" stroke-width="1" fill="none" fill-rule="evenodd">
        <g id="Map" fill-rule="nonzero">
            <g id="Layer_1">
                <g id="Shape">
                    <use fill="#4A4A4A" fill-rule="evenodd" xlink:href="#path-1"></use>
                    <use fill="black" fill-opacity="1" filter="url(#filter-2)" xlink:href="#path-1"></use>
                </g>
            </g>
        </g>
    </g>
</svg>